<svg width="161" height="16" viewBox="0 0 161 16" fill="none" xmlns="http://www.w3.org/2000/svg">
<path fill-rule="evenodd" clip-rule="evenodd" d="M0 0.626563V15.3734H13.8252C17.8974 15.3734 21.1986 12.0722 21.1986 8C21.1986 3.92776 17.8974 0.626563 13.8252 0.626563H0ZM13.0418 2.24582C10.2054 2.62835 8.01861 5.0588 8.01861 8C8.01861 10.9412 10.2054 13.3716 13.0418 13.7542V2.24582ZM14.6086 13.7542C17.445 13.3716 19.6318 10.9412 19.6318 8C19.6318 5.0588 17.445 2.62835 14.6086 2.24582V13.7542ZM9.28032 13.8066C7.55828 12.4568 6.45176 10.3576 6.45176 8C6.45176 5.64237 7.55828 3.54317 9.28032 2.19342H1.56686V13.8066H9.28032Z" fill="white"/>
<path d="M33.4762 15.3736V8.71629H40.1546V15.3736H41.9875V0.626404H40.1546V7.0309H33.4762V0.626404H31.6434V15.3736H33.4762Z" fill="white"/>
<path d="M55.4573 0.626404H47.1567V2.14326H50.4011V13.8567H47.1567V15.3736H55.4573V13.8567H52.234V2.14326H55.4573V0.626404Z" fill="white"/>
<path d="M65.3458 15.5C67.3893 15.5 68.6744 14.6573 69.3486 13.3722L69.475 15.3736H71.0551V7.38904H65.6407V9.07444H69.2643V9.58006C69.2643 12.1924 67.8107 13.8146 65.3669 13.8146C62.5649 13.8146 61.0902 11.6868 61.0902 8C61.0902 4.3132 62.5017 2.18539 65.3247 2.18539C67.3472 2.18539 68.5902 3.2177 69.0326 5.42978H70.9919C70.423 2.10112 68.3795 0.5 65.3669 0.5C61.3851 0.5 59.2152 3.3441 59.2152 8C59.2152 12.5927 61.5115 15.5 65.3458 15.5Z" fill="white"/>
<path d="M78.1663 15.3736V8.71629H84.8447V15.3736H86.6775V0.626404H84.8447V7.0309H78.1663V0.626404H76.3334V15.3736H78.1663Z" fill="white"/>
<path d="M100.611 15.3736V13.6882H93.9957V0.626404H92.1628V15.3736H100.611Z" fill="white"/>
<path d="M113.014 0.626404H104.714V2.14326H107.958V13.8567H104.714V15.3736H113.014V13.8567H109.791V2.14326H113.014V0.626404Z" fill="white"/>
<path d="M122.903 15.5C124.946 15.5 126.231 14.6573 126.905 13.3722L127.032 15.3736H128.612V7.38904H123.198V9.07444H126.821V9.58006C126.821 12.1924 125.367 13.8146 122.924 13.8146C120.122 13.8146 118.647 11.6868 118.647 8C118.647 4.3132 120.059 2.18539 122.882 2.18539C124.904 2.18539 126.147 3.2177 126.589 5.42978H128.549C127.98 2.10112 125.936 0.5 122.924 0.5C118.942 0.5 116.772 3.3441 116.772 8C116.772 12.5927 119.068 15.5 122.903 15.5Z" fill="white"/>
<path d="M135.723 15.3736V8.71629H142.401V15.3736H144.234V0.626404H142.401V7.0309H135.723V0.626404H133.89V15.3736H135.723Z" fill="white"/>
<path d="M155.281 15.3736V2.3118H160.064V0.626404H148.666V2.3118H153.449V15.3736H155.281Z" fill="white"/>
</svg>
